<?xml version="1.0" encoding="UTF-8"?>
<!DOCTYPE svg PUBLIC "-//W3C//DTD SVG 1.1//EN" "http://www.w3.org/Graphics/SVG/1.1/DTD/svg11.dtd">
<svg xmlns="http://www.w3.org/2000/svg" version="1.1" width="500px" height="500px" style="shape-rendering:geometricPrecision; text-rendering:geometricPrecision; image-rendering:optimizeQuality; fill-rule:evenodd; clip-rule:evenodd" xmlns:xlink="http://www.w3.org/1999/xlink">
<g><path style="opacity:0.004" fill="#000000" d="M 454.5,16.5 C 455.833,17.1667 455.833,17.1667 454.5,16.5 Z"/></g>
<g><path style="opacity:0.004" fill="#000000" d="M 290.5,20.5 C 291.833,21.1667 291.833,21.1667 290.5,20.5 Z"/></g>
<g><path style="opacity:0.004" fill="#000000" d="M 399.5,20.5 C 400.833,21.1667 400.833,21.1667 399.5,20.5 Z"/></g>
<g><path style="opacity:0.004" fill="#000000" d="M 1.5,25.5 C 2.83333,26.1667 2.83333,26.1667 1.5,25.5 Z"/></g>
<g><path style="opacity:0.004" fill="#000000" d="M 406.5,31.5 C 407.833,32.1667 407.833,32.1667 406.5,31.5 Z"/></g>
<g><path style="opacity:0.004" fill="#000000" d="M 496.5,32.5 C 497.833,33.1667 497.833,33.1667 496.5,32.5 Z"/></g>
<g><path style="opacity:0.004" fill="#000000" d="M 242.5,40.5 C 243.833,41.1667 243.833,41.1667 242.5,40.5 Z"/></g>
<g><path style="opacity:0.004" fill="#000000" d="M 207.5,42.5 C 208.833,43.1667 208.833,43.1667 207.5,42.5 Z"/></g>
<g><path style="opacity:0.004" fill="#000000" d="M 460.5,44.5 C 461.833,45.1667 461.833,45.1667 460.5,44.5 Z"/></g>
<g><path style="opacity:0.004" fill="#000000" d="M 168.5,49.5 C 169.833,50.1667 169.833,50.1667 168.5,49.5 Z"/></g>
<g><path style="opacity:0.004" fill="#000000" d="M 402.5,63.5 C 403.833,64.1667 403.833,64.1667 402.5,63.5 Z"/></g>
<g><path style="opacity:0.004" fill="#000000" d="M 387.5,69.5 C 388.833,70.1667 388.833,70.1667 387.5,69.5 Z"/></g>
<g><path style="opacity:0.004" fill="#000000" d="M 322.5,70.5 C 323.833,71.1667 323.833,71.1667 322.5,70.5 Z"/></g>
<g><path style="opacity:0.004" fill="#000000" d="M 359.5,70.5 C 360.833,71.1667 360.833,71.1667 359.5,70.5 Z"/></g>
<g><path style="opacity:0.004" fill="#000000" d="M 404.5,81.5 C 405.833,82.1667 405.833,82.1667 404.5,81.5 Z"/></g>
<g><path style="opacity:0.004" fill="#000000" d="M 415.5,85.5 C 416.833,86.1667 416.833,86.1667 415.5,85.5 Z"/></g>
<g><path style="opacity:0.004" fill="#000000" d="M 413.5,97.5 C 414.833,98.1667 414.833,98.1667 413.5,97.5 Z"/></g>
<g><path style="opacity:0.004" fill="#000000" d="M 311.5,99.5 C 312.833,100.167 312.833,100.167 311.5,99.5 Z"/></g>
<g><path style="opacity:0.004" fill="#000000" d="M 58.5,100.5 C 59.8333,101.167 59.8333,101.167 58.5,100.5 Z"/></g>
<g><path style="opacity:0.004" fill="#000000" d="M 98.5,102.5 C 99.8333,103.167 99.8333,103.167 98.5,102.5 Z"/></g>
<g><path style="opacity:0.004" fill="#000000" d="M 323.5,114.5 C 324.833,115.167 324.833,115.167 323.5,114.5 Z"/></g>
<g><path style="opacity:0.004" fill="#000000" d="M 406.5,121.5 C 407.833,122.167 407.833,122.167 406.5,121.5 Z"/></g>
<g><path style="opacity:0.004" fill="#000000" d="M 201.5,123.5 C 202.833,124.167 202.833,124.167 201.5,123.5 Z"/></g>
<g><path style="opacity:0.004" fill="#000000" d="M 97.5,125.5 C 98.8333,126.167 98.8333,126.167 97.5,125.5 Z"/></g>
<g><path style="opacity:0.004" fill="#000000" d="M 232.5,128.5 C 233.833,129.167 233.833,129.167 232.5,128.5 Z"/></g>
<g><path style="opacity:0.004" fill="#000000" d="M 305.5,128.5 C 306.833,129.167 306.833,129.167 305.5,128.5 Z"/></g>
<g><path style="opacity:0.004" fill="#000000" d="M 130.5,130.5 C 131.833,131.167 131.833,131.167 130.5,130.5 Z"/></g>
<g><path style="opacity:0.004" fill="#000000" d="M 81.5,132.5 C 82.8333,133.167 82.8333,133.167 81.5,132.5 Z"/></g>
<g><path style="opacity:0.004" fill="#000000" d="M 284.5,137.5 C 285.833,138.167 285.833,138.167 284.5,137.5 Z"/></g>
<g><path style="opacity:0.004" fill="#000000" d="M 485.5,150.5 C 486.833,151.167 486.833,151.167 485.5,150.5 Z"/></g>
<g><path style="opacity:0.004" fill="#000000" d="M 137.5,151.5 C 138.833,152.167 138.833,152.167 137.5,151.5 Z"/></g>
<g><path style="opacity:0.004" fill="#000000" d="M 81.5,154.5 C 82.8333,155.167 82.8333,155.167 81.5,154.5 Z"/></g>
<g><path style="opacity:0.004" fill="#000000" d="M 57.5,158.5 C 58.8333,159.167 58.8333,159.167 57.5,158.5 Z"/></g>
<g><path style="opacity:0.004" fill="#000000" d="M 309.5,161.5 C 310.833,162.167 310.833,162.167 309.5,161.5 Z"/></g>
<g><path style="opacity:0.748" fill="#78c6da" d="M 175.5,169.5 C 181.653,168.347 187.986,168.18 194.5,169C 195.738,169.69 195.738,170.19 194.5,170.5C 188.256,169.542 181.923,169.209 175.5,169.5 Z"/></g>
<g><path style="opacity:1" fill="#6cdbf2" d="M 173.5,170.5 C 173.842,169.662 174.508,169.328 175.5,169.5C 181.923,169.209 188.256,169.542 194.5,170.5C 194.5,171.833 193.833,172.5 192.5,172.5C 187.604,170.554 182.271,169.887 176.5,170.5C 175.5,170.5 174.5,170.5 173.5,170.5 Z"/></g>
<g><path style="opacity:1" fill="#5ce4fd" d="M 176.5,170.5 C 182.271,169.887 187.604,170.554 192.5,172.5C 186.729,173.113 181.396,172.446 176.5,170.5 Z"/></g>
<g><path style="opacity:1" fill="#61e1f4" d="M 323.5,169.5 C 324.357,170.802 324.857,172.135 325,173.5C 321.606,172.544 318.106,172.211 314.5,172.5C 312.167,172.5 309.833,172.5 307.5,172.5C 307.527,170.801 308.194,169.467 309.5,168.5C 313.122,168.732 316.955,168.398 321,167.5C 321.995,168.066 322.828,168.733 323.5,169.5 Z"/></g>
<g><path style="opacity:0.004" fill="#000000" d="M 333.5,171.5 C 334.833,172.167 334.833,172.167 333.5,171.5 Z"/></g>
<g><path style="opacity:0.004" fill="#000000" d="M 479.5,171.5 C 480.833,172.167 480.833,172.167 479.5,171.5 Z"/></g>
<g><path style="opacity:0.235" fill="#6bcfe1" d="M 309.5,168.5 C 308.194,169.467 307.527,170.801 307.5,172.5C 309.833,172.5 312.167,172.5 314.5,172.5C 314.5,172.833 314.5,173.167 314.5,173.5C 311.813,173.664 309.146,173.497 306.5,173C 304.893,171.951 304.227,170.451 304.5,168.5C 306.167,168.5 307.833,168.5 309.5,168.5 Z"/></g>
<g><path style="opacity:1" fill="#68d9ea" d="M 323.5,169.5 C 326.412,170.429 329.079,171.762 331.5,173.5C 331.433,174.959 331.766,176.292 332.5,177.5C 331.71,178.609 331.21,179.942 331,181.5C 330.617,180.944 330.117,180.611 329.5,180.5C 326.193,174.936 321.193,172.603 314.5,173.5C 314.5,173.167 314.5,172.833 314.5,172.5C 318.106,172.211 321.606,172.544 325,173.5C 324.857,172.135 324.357,170.802 323.5,169.5 Z"/></g>
<g><path style="opacity:0.004" fill="#000000" d="M 331.5,172.5 C 332.833,173.167 332.833,173.167 331.5,172.5 Z"/></g>
<g><path style="opacity:1" fill="#67d3e8" d="M 173.5,170.5 C 174.5,170.5 175.5,170.5 176.5,170.5C 181.396,172.446 186.729,173.113 192.5,172.5C 188.018,173.326 183.351,173.826 178.5,174C 176.112,174.303 173.945,175.137 172,176.5C 170.584,182.715 170.084,189.048 170.5,195.5C 169.778,195.082 169.278,194.416 169,193.5C 168.605,176.61 167.438,176.61 165.5,193.5C 163.847,186.206 164.847,179.54 168.5,173.5C 169.94,172.048 171.606,171.048 173.5,170.5 Z"/></g>
<g><path style="opacity:1" fill="#6dcfe2" d="M 332.5,177.5 C 333.457,181.094 334.124,184.76 334.5,188.5C 332.583,197.473 331.917,206.473 332.5,215.5C 331.662,215.158 331.328,214.492 331.5,213.5C 331.268,205.804 331.601,198.138 332.5,190.5C 332.167,189.5 331.833,188.5 331.5,187.5C 330.832,189.969 330.165,192.302 329.5,194.5C 328.783,190.011 328.783,185.344 329.5,180.5C 330.117,180.611 330.617,180.944 331,181.5C 331.21,179.942 331.71,178.609 332.5,177.5 Z"/></g>
<g><path style="opacity:0.004" fill="#000000" d="M 46.5,194.5 C 47.8333,195.167 47.8333,195.167 46.5,194.5 Z"/></g>
<g><path style="opacity:0.004" fill="#000000" d="M 127.5,194.5 C 128.833,195.167 128.833,195.167 127.5,194.5 Z"/></g>
<g><path style="opacity:1" fill="#63e2f6" d="M 170.5,195.5 C 170.5,196.167 170.5,196.833 170.5,197.5C 169.883,197.611 169.383,197.944 169,198.5C 167.45,197.409 166.283,196.076 165.5,194.5C 164.167,194.167 164.167,193.833 165.5,193.5C 167.438,176.61 168.605,176.61 169,193.5C 169.278,194.416 169.778,195.082 170.5,195.5 Z"/></g>
<g><path style="opacity:0.004" fill="#000000" d="M 137.5,196.5 C 138.833,197.167 138.833,197.167 137.5,196.5 Z"/></g>
<g><path style="opacity:1" fill="#68cde7" d="M 165.5,194.5 C 166.283,196.076 167.45,197.409 169,198.5C 169.383,197.944 169.883,197.611 170.5,197.5C 171.254,202.463 171.587,207.463 171.5,212.5C 170.833,212.167 170.167,211.833 169.5,211.5C 168.364,195.696 167.698,195.696 167.5,211.5C 166.833,211.5 166.167,211.5 165.5,211.5C 166.107,205.77 166.107,200.103 165.5,194.5 Z"/></g>
<g><path style="opacity:0.004" fill="#000000" d="M 123.5,200.5 C 124.833,201.167 124.833,201.167 123.5,200.5 Z"/></g>
<g><path style="opacity:1" fill="#65e2f7" d="M 331.5,213.5 C 330.833,213.167 330.167,212.833 329.5,212.5C 329.5,207.5 329.5,202.5 329.5,197.5C 329.5,196.5 329.5,195.5 329.5,194.5C 330.165,192.302 330.832,189.969 331.5,187.5C 331.833,188.5 332.167,189.5 332.5,190.5C 331.601,198.138 331.268,205.804 331.5,213.5 Z"/></g>
<g><path style="opacity:0.004" fill="#000000" d="M 117.5,201.5 C 118.833,202.167 118.833,202.167 117.5,201.5 Z"/></g>
<g><path style="opacity:0.047" fill="#6ac5d8" d="M 329.5,197.5 C 329.5,202.5 329.5,207.5 329.5,212.5C 329.5,213.5 329.5,214.5 329.5,215.5C 328.027,212.983 327.36,210.15 327.5,207C 327.421,203.549 328.087,200.382 329.5,197.5 Z"/></g>
<g><path style="opacity:0.004" fill="#000000" d="M 48.5,206.5 C 49.8333,207.167 49.8333,207.167 48.5,206.5 Z"/></g>
<g><path style="opacity:1" fill="#62e2fc" d="M 169.5,211.5 C 168.833,211.5 168.167,211.5 167.5,211.5C 167.698,195.696 168.364,195.696 169.5,211.5 Z"/></g>
<g><path style="opacity:1" fill="#5be5fc" d="M 243.5,206.5 C 246.247,206.187 248.914,206.52 251.5,207.5C 249.745,211.991 248.412,216.658 247.5,221.5C 247.167,221.5 246.833,221.5 246.5,221.5C 245.88,218.66 245.213,215.826 244.5,213C 245.744,212.544 246.577,213.044 247,214.5C 247.551,212.647 246.885,211.313 245,210.5C 244.667,210.833 244.333,211.167 244,211.5C 243.51,210.207 243.343,208.873 243.5,207.5C 243.5,207.167 243.5,206.833 243.5,206.5 Z"/></g>
<g><path style="opacity:1" fill="#58e6fd" d="M 262.5,206.5 C 264.833,206.5 267.167,206.5 269.5,206.5C 269.5,207.833 269.5,209.167 269.5,210.5C 267.833,210.5 266.167,210.5 264.5,210.5C 262.25,210.819 260.25,210.319 258.5,209C 259.308,207.294 260.641,206.461 262.5,206.5 Z"/></g>
<g><path style="opacity:1" fill="#67dcef" d="M 262.5,206.5 C 264.948,205.527 267.615,205.194 270.5,205.5C 279.425,206.441 280.591,209.774 274,215.5C 272.059,213.13 269.559,211.797 266.5,211.5C 265.508,211.672 264.842,211.338 264.5,210.5C 266.167,210.5 267.833,210.5 269.5,210.5C 269.5,209.167 269.5,207.833 269.5,206.5C 267.167,206.5 264.833,206.5 262.5,206.5 Z"/></g>
<g><path style="opacity:1" fill="#5de4fc" d="M 223.5,206.5 C 223.702,208.95 223.369,211.283 222.5,213.5C 221.222,213.218 220.222,212.551 219.5,211.5C 219.5,209.833 219.5,208.167 219.5,206.5C 220.833,206.5 222.167,206.5 223.5,206.5 Z"/></g>
<g><path style="opacity:1" fill="#6cd4e8" d="M 270.5,205.5 C 267.615,205.194 264.948,205.527 262.5,206.5C 260.641,206.461 259.308,207.294 258.5,209C 260.25,210.319 262.25,210.819 264.5,210.5C 264.842,211.338 265.508,211.672 266.5,211.5C 264.537,212.168 262.537,212.502 260.5,212.5C 258.576,213.965 258.243,215.632 259.5,217.5C 258.167,217.5 257.5,216.833 257.5,215.5C 256.086,213.862 256.42,212.528 258.5,211.5C 257.471,211.704 256.471,211.204 255.5,210C 258.125,208.624 258.125,207.458 255.5,206.5C 258.186,205.009 261.186,204.343 264.5,204.5C 266.696,204.505 268.696,204.838 270.5,205.5 Z"/></g>
<g><path style="opacity:1" fill="#63def5" d="M 243.5,207.5 C 243.343,208.873 243.51,210.207 244,211.5C 244.333,211.167 244.667,210.833 245,210.5C 246.885,211.313 247.551,212.647 247,214.5C 246.577,213.044 245.744,212.544 244.5,213C 245.213,215.826 245.88,218.66 246.5,221.5C 244.248,221.084 242.748,219.751 242,217.5C 241.617,218.056 241.117,218.389 240.5,218.5C 240.854,216.459 240.854,214.626 240.5,213C 241.609,211.124 242.609,209.291 243.5,207.5 Z"/></g>
<g><path style="opacity:0.004" fill="#000000" d="M 78.5,211.5 C 79.8333,212.167 79.8333,212.167 78.5,211.5 Z"/></g>
<g><path style="opacity:1" fill="#6dd8ee" d="M 228.5,213.5 C 227.833,213.833 227.167,214.167 226.5,214.5C 225.768,211.932 225.768,209.266 226.5,206.5C 225.5,206.5 224.5,206.5 223.5,206.5C 222.167,206.5 220.833,206.5 219.5,206.5C 219.5,208.167 219.5,209.833 219.5,211.5C 218.262,209.786 217.595,207.786 217.5,205.5C 220.85,205.335 224.183,205.502 227.5,206C 226.911,207.873 227.578,209.54 229.5,211C 228.748,211.671 228.414,212.504 228.5,213.5 Z"/></g>
<g><path style="opacity:1" fill="#61d0e7" d="M 243.5,206.5 C 246.833,205.167 250.167,205.167 253.5,206.5C 252.833,206.5 252.5,206.833 252.5,207.5C 252.371,209.216 252.038,210.883 251.5,212.5C 250.766,213.878 250.099,215.378 249.5,217C 250.641,217.741 250.641,218.575 249.5,219.5C 249.957,220.298 250.624,220.631 251.5,220.5C 252.833,222.167 254.167,223.833 255.5,225.5C 253.052,223.716 250.385,222.382 247.5,221.5C 248.412,216.658 249.745,211.991 251.5,207.5C 248.914,206.52 246.247,206.187 243.5,206.5 Z"/></g>
<g><path style="opacity:1" fill="#5be4fa" d="M 253.5,206.5 C 254.167,206.5 254.833,206.5 255.5,206.5C 258.125,207.458 258.125,208.624 255.5,210C 256.471,211.204 257.471,211.704 258.5,211.5C 256.42,212.528 256.086,213.862 257.5,215.5C 256.883,215.611 256.383,215.944 256,216.5C 255.583,215.244 254.75,214.577 253.5,214.5C 253.869,212.007 253.203,211.34 251.5,212.5C 252.038,210.883 252.371,209.216 252.5,207.5C 253.167,207.5 253.5,207.167 253.5,206.5 Z"/></g>
<g><path style="opacity:0.004" fill="#000000" d="M 324.5,212.5 C 325.833,213.167 325.833,213.167 324.5,212.5 Z"/></g>
<g><path style="opacity:1" fill="#5ae7fc" d="M 223.5,206.5 C 224.5,206.5 225.5,206.5 226.5,206.5C 225.768,209.266 225.768,211.932 226.5,214.5C 225.326,215.514 224.66,216.847 224.5,218.5C 224.167,218.5 223.833,218.5 223.5,218.5C 222.699,216.647 222.365,214.981 222.5,213.5C 223.369,211.283 223.702,208.95 223.5,206.5 Z"/></g>
<g><path style="opacity:0.004" fill="#000000" d="M 0.5,214.5 C 1.83333,215.167 1.83333,215.167 0.5,214.5 Z"/></g>
<g><path style="opacity:1" fill="#6fdbec" d="M 219.5,211.5 C 220.222,212.551 221.222,213.218 222.5,213.5C 222.365,214.981 222.699,216.647 223.5,218.5C 223.795,220.735 223.461,222.735 222.5,224.5C 221.863,220.422 220.53,216.589 218.5,213C 219.056,212.617 219.389,212.117 219.5,211.5 Z"/></g>
<g><path style="opacity:1" fill="#5de1fa" d="M 228.5,213.5 C 229.5,213.833 230.167,214.5 230.5,215.5C 229.539,217.265 229.205,219.265 229.5,221.5C 229.631,222.239 229.464,222.906 229,223.5C 228.712,220.713 227.212,219.047 224.5,218.5C 224.66,216.847 225.326,215.514 226.5,214.5C 227.167,214.167 227.833,213.833 228.5,213.5 Z"/></g>
<g><path style="opacity:1" fill="#59e7f9" d="M 253.5,214.5 C 253.5,216.167 253.5,217.833 253.5,219.5C 252.508,219.328 251.842,219.662 251.5,220.5C 250.624,220.631 249.957,220.298 249.5,219.5C 250.641,218.575 250.641,217.741 249.5,217C 250.099,215.378 250.766,213.878 251.5,212.5C 253.203,211.34 253.869,212.007 253.5,214.5 Z"/></g>
<g><path style="opacity:1" fill="#66e0f0" d="M 329.5,212.5 C 330.167,212.833 330.833,213.167 331.5,213.5C 331.328,214.492 331.662,215.158 332.5,215.5C 333.301,217.042 333.634,218.708 333.5,220.5C 332.732,221.263 332.232,222.263 332,223.5C 331.302,220.996 330.469,218.663 329.5,216.5C 329.5,216.167 329.5,215.833 329.5,215.5C 329.5,214.5 329.5,213.5 329.5,212.5 Z"/></g>
<g><path style="opacity:1" fill="#5fe1f8" d="M 165.5,211.5 C 166.167,211.5 166.833,211.5 167.5,211.5C 168.167,211.5 168.833,211.5 169.5,211.5C 170.167,211.833 170.833,212.167 171.5,212.5C 171.5,213.167 171.167,213.5 170.5,213.5C 169.868,215.743 168.534,217.409 166.5,218.5C 166.5,217.5 166.5,216.5 166.5,215.5C 166.567,214.041 166.234,212.708 165.5,211.5 Z"/></g>
<g><path style="opacity:0.004" fill="#000000" d="M 135.5,219.5 C 136.833,220.167 136.833,220.167 135.5,219.5 Z"/></g>
<g><path style="opacity:1" fill="#69d9ef" d="M 170.5,213.5 C 170.689,217.037 170.023,220.37 168.5,223.5C 166.833,224.833 165.167,226.167 163.5,227.5C 164.629,224.491 165.629,221.491 166.5,218.5C 168.534,217.409 169.868,215.743 170.5,213.5 Z"/></g>
<g><path style="opacity:1" fill="#5ae6fc" d="M 253.5,219.5 C 256.766,219.433 258.266,221.099 258,224.5C 258.377,223.058 259.21,222.058 260.5,221.5C 262.072,222.687 263.739,223.687 265.5,224.5C 265.833,225.833 266.167,227.167 266.5,228.5C 262.969,226.962 259.303,225.962 255.5,225.5C 254.167,223.833 252.833,222.167 251.5,220.5C 251.842,219.662 252.508,219.328 253.5,219.5 Z"/></g>
<g><path style="opacity:1" fill="#61dff8" d="M 253.5,214.5 C 254.75,214.577 255.583,215.244 256,216.5C 256.383,215.944 256.883,215.611 257.5,215.5C 257.5,216.833 258.167,217.5 259.5,217.5C 260.872,218.512 262.205,219.512 263.5,220.5C 262.391,220.557 261.391,220.89 260.5,221.5C 259.21,222.058 258.377,223.058 258,224.5C 258.266,221.099 256.766,219.433 253.5,219.5C 253.5,217.833 253.5,216.167 253.5,214.5 Z"/></g>
<g><path style="opacity:0.38" fill="#69cbdd" d="M 166.5,215.5 C 166.5,216.5 166.5,217.5 166.5,218.5C 165.629,221.491 164.629,224.491 163.5,227.5C 162.764,229.229 161.43,230.229 159.5,230.5C 162.13,225.576 164.464,220.576 166.5,215.5 Z"/></g>
<g><path style="opacity:1" fill="#5ce3f7" d="M 246.5,221.5 C 246.833,221.5 247.167,221.5 247.5,221.5C 247.768,223.099 247.434,224.432 246.5,225.5C 245.036,224.595 243.702,224.595 242.5,225.5C 241.833,223.167 241.167,220.833 240.5,218.5C 241.117,218.389 241.617,218.056 242,217.5C 242.748,219.751 244.248,221.084 246.5,221.5 Z"/></g>
<g><path style="opacity:1" fill="#68dbef" d="M 263.5,220.5 C 267.797,221.146 271.797,222.646 275.5,225C 277.141,226.129 278.141,227.629 278.5,229.5C 277.5,228.833 276.5,228.167 275.5,227.5C 273.73,224.577 271.73,224.244 269.5,226.5C 268.378,225.37 267.044,224.703 265.5,224.5C 263.739,223.687 262.072,222.687 260.5,221.5C 261.391,220.89 262.391,220.557 263.5,220.5 Z"/></g>
<g><path style="opacity:1" fill="#6acfe5" d="M 329.5,216.5 C 330.469,218.663 331.302,220.996 332,223.5C 332.232,222.263 332.732,221.263 333.5,220.5C 334.537,221.93 335.204,223.597 335.5,225.5C 334.624,225.369 333.957,225.702 333.5,226.5C 334.127,227.417 334.461,228.417 334.5,229.5C 330.783,225.768 329.116,221.434 329.5,216.5 Z"/></g>
<g><path style="opacity:1" fill="#5ae6fc" d="M 223.5,218.5 C 223.833,218.5 224.167,218.5 224.5,218.5C 227.212,219.047 228.712,220.713 229,223.5C 229.464,222.906 229.631,222.239 229.5,221.5C 230.833,222.833 230.833,224.167 229.5,225.5C 228.833,225.5 228.5,225.833 228.5,226.5C 227.883,226.611 227.383,226.944 227,227.5C 226.29,226.027 225.124,225.36 223.5,225.5C 222.833,225.5 222.5,225.167 222.5,224.5C 223.461,222.735 223.795,220.735 223.5,218.5 Z"/></g>
<g><path style="opacity:1" fill="#6dd5eb" d="M 230.5,215.5 C 231.2,220.196 232.533,225.03 234.5,230C 233.447,231.749 233.78,233.249 235.5,234.5C 235.167,235.167 234.833,235.833 234.5,236.5C 233.286,232.682 231.62,229.015 229.5,225.5C 230.833,224.167 230.833,222.833 229.5,221.5C 229.205,219.265 229.539,217.265 230.5,215.5 Z"/></g>
<g><path style="opacity:1" fill="#6fd9e7" d="M 255.5,225.5 C 259.303,225.962 262.969,226.962 266.5,228.5C 267.5,229.167 268.5,229.833 269.5,230.5C 270.625,231.652 270.625,232.652 269.5,233.5C 269.047,232.542 268.381,231.708 267.5,231C 263.186,229.628 259.186,227.795 255.5,225.5 Z"/></g>
<g><path style="opacity:1" fill="#5be3fc" d="M 265.5,224.5 C 267.044,224.703 268.378,225.37 269.5,226.5C 271.73,224.244 273.73,224.577 275.5,227.5C 274.711,227.783 274.044,228.283 273.5,229C 275.981,230.804 275.981,232.304 273.5,233.5C 273.716,231.319 272.883,229.653 271,228.5C 270.283,229.044 269.783,229.711 269.5,230.5C 268.5,229.833 267.5,229.167 266.5,228.5C 266.167,227.167 265.833,225.833 265.5,224.5 Z"/></g>
<g><path style="opacity:1" fill="#65daf0" d="M 246.5,225.5 C 245.87,229.048 244.87,232.381 243.5,235.5C 243.663,233.143 243.497,230.81 243,228.5C 242.617,229.056 242.117,229.389 241.5,229.5C 240.557,227.999 240.891,226.665 242.5,225.5C 243.702,224.595 245.036,224.595 246.5,225.5 Z"/></g>
<g><path style="opacity:1" fill="#69ddf4" d="M 223.5,225.5 C 225.124,225.36 226.29,226.027 227,227.5C 227.383,226.944 227.883,226.611 228.5,226.5C 229.11,227.391 229.443,228.391 229.5,229.5C 228.504,229.414 227.671,229.748 227,230.5C 226.79,232.058 226.29,233.391 225.5,234.5C 224.966,231.795 224.299,228.795 223.5,225.5 Z"/></g>
<g><path style="opacity:1" fill="#5ee3fa" d="M 240.5,218.5 C 241.167,220.833 241.833,223.167 242.5,225.5C 240.891,226.665 240.557,227.999 241.5,229.5C 241.44,230.043 241.107,230.376 240.5,230.5C 239.818,229.757 239.151,229.091 238.5,228.5C 239.092,225.873 239.425,223.206 239.5,220.5C 239.328,219.508 239.662,218.842 240.5,218.5 Z"/></g>
<g><path style="opacity:1" fill="#62dff5" d="M 275.5,227.5 C 276.5,228.167 277.5,228.833 278.5,229.5C 279.267,230.172 279.934,231.005 280.5,232C 279.726,234.405 279.226,236.905 279,239.5C 278.34,241.324 277.173,242.657 275.5,243.5C 275.319,240.805 274.319,238.472 272.5,236.5C 276.002,237.359 276.335,236.359 273.5,233.5C 275.981,232.304 275.981,230.804 273.5,229C 274.044,228.283 274.711,227.783 275.5,227.5 Z"/></g>
<g><path style="opacity:1" fill="#5be7fa" d="M 238.5,228.5 C 239.151,229.091 239.818,229.757 240.5,230.5C 241.107,230.376 241.44,230.043 241.5,229.5C 242.117,229.389 242.617,229.056 243,228.5C 243.497,230.81 243.663,233.143 243.5,235.5C 242.185,233.401 240.518,233.067 238.5,234.5C 237.359,232.549 237.359,230.549 238.5,228.5 Z"/></g>
<g><path style="opacity:1" fill="#59e7fa" d="M 273.5,233.5 C 276.335,236.359 276.002,237.359 272.5,236.5C 272.167,236.5 271.833,236.5 271.5,236.5C 271.672,235.508 271.338,234.842 270.5,234.5C 269.833,234.5 269.5,234.167 269.5,233.5C 270.625,232.652 270.625,231.652 269.5,230.5C 269.783,229.711 270.283,229.044 271,228.5C 272.883,229.653 273.716,231.319 273.5,233.5 Z"/></g>
<g><path style="opacity:1" fill="#74d5ef" d="M 168.5,223.5 C 166.207,228.452 162.874,232.452 158.5,235.5C 158.567,234.041 158.234,232.708 157.5,231.5C 158.167,231.167 158.833,230.833 159.5,230.5C 161.43,230.229 162.764,229.229 163.5,227.5C 165.167,226.167 166.833,224.833 168.5,223.5 Z"/></g>
<g><path style="opacity:1" fill="#6ad6e5" d="M 335.5,225.5 C 339.717,231.851 345.717,235.017 353.5,235C 354.38,236.356 354.714,237.856 354.5,239.5C 352.5,239.5 350.5,239.5 348.5,239.5C 350.042,238.837 351.709,238.17 353.5,237.5C 353.291,236.914 352.957,236.414 352.5,236C 348.812,235.81 345.312,234.976 342,233.5C 341.392,235.066 340.558,236.4 339.5,237.5C 337.86,234.851 336.193,232.184 334.5,229.5C 334.461,228.417 334.127,227.417 333.5,226.5C 333.957,225.702 334.624,225.369 335.5,225.5 Z"/></g>
<g><path style="opacity:0.004" fill="#000000" d="M 207.5,233.5 C 208.833,234.167 208.833,234.167 207.5,233.5 Z"/></g>
<g><path style="opacity:1" fill="#63e2f5" d="M 229.5,229.5 C 229.388,231.807 230.388,233.973 232.5,236C 231.944,236.383 231.611,236.883 231.5,237.5C 230.883,237.389 230.383,237.056 230,236.5C 229.392,238.154 228.892,239.821 228.5,241.5C 226.767,240.992 226.434,240.159 227.5,239C 226.733,237.53 226.067,236.03 225.5,234.5C 226.29,233.391 226.79,232.058 227,230.5C 227.671,229.748 228.504,229.414 229.5,229.5 Z"/></g>
<g><path style="opacity:1" fill="#62cee3" d="M 239.5,220.5 C 239.425,223.206 239.092,225.873 238.5,228.5C 237.359,230.549 237.359,232.549 238.5,234.5C 236.818,235.827 235.485,237.494 234.5,239.5C 234.5,238.5 234.5,237.5 234.5,236.5C 234.833,235.833 235.167,235.167 235.5,234.5C 236.259,229.57 237.592,224.903 239.5,220.5 Z"/></g>
<g><path style="opacity:1" fill="#65d9ee" d="M 157.5,231.5 C 158.234,232.708 158.567,234.041 158.5,235.5C 158.5,236.167 158.167,236.5 157.5,236.5C 157.134,235.305 156.301,234.639 155,234.5C 153.632,235.703 152.132,236.703 150.5,237.5C 149.914,237.291 149.414,236.957 149,236.5C 148.761,237.788 149.261,238.788 150.5,239.5C 143.241,240.865 142.074,238.865 147,233.5C 150.847,234.831 154.347,234.164 157.5,231.5 Z"/></g>
<g><path style="opacity:1" fill="#5de3fe" d="M 229.5,225.5 C 231.62,229.015 233.286,232.682 234.5,236.5C 234.5,237.5 234.5,238.5 234.5,239.5C 235.091,240.151 235.757,240.818 236.5,241.5C 235.757,242.182 235.091,242.849 234.5,243.5C 231.553,242.277 230.553,240.277 231.5,237.5C 231.611,236.883 231.944,236.383 232.5,236C 230.388,233.973 229.388,231.807 229.5,229.5C 229.443,228.391 229.11,227.391 228.5,226.5C 228.5,225.833 228.833,225.5 229.5,225.5 Z"/></g>
<g><path style="opacity:1" fill="#60e4f0" d="M 231.5,237.5 C 230.553,240.277 231.553,242.277 234.5,243.5C 233.766,244.708 233.433,246.041 233.5,247.5C 229.686,247.349 228.019,245.349 228.5,241.5C 228.892,239.821 229.392,238.154 230,236.5C 230.383,237.056 230.883,237.389 231.5,237.5 Z"/></g>
<g><path style="opacity:1" fill="#61e0f7" d="M 348.5,239.5 C 345.833,240.833 343.167,242.167 340.5,243.5C 338.346,241.842 338.013,239.842 339.5,237.5C 340.558,236.4 341.392,235.066 342,233.5C 345.312,234.976 348.812,235.81 352.5,236C 352.957,236.414 353.291,236.914 353.5,237.5C 351.709,238.17 350.042,238.837 348.5,239.5 Z"/></g>
<g><path style="opacity:1" fill="#5ee6f7" d="M 157.5,236.5 C 157.5,236.833 157.5,237.167 157.5,237.5C 155.896,238.287 155.229,239.62 155.5,241.5C 153.716,241.107 152.05,240.441 150.5,239.5C 149.261,238.788 148.761,237.788 149,236.5C 149.414,236.957 149.914,237.291 150.5,237.5C 152.132,236.703 153.632,235.703 155,234.5C 156.301,234.639 157.134,235.305 157.5,236.5 Z"/></g>
<g><path style="opacity:1" fill="#5ce6fc" d="M 238.5,234.5 C 238.706,236.549 239.539,236.883 241,235.5C 241.49,236.793 241.657,238.127 241.5,239.5C 240.178,239.67 239.011,239.337 238,238.5C 238.434,240.176 239.268,241.843 240.5,243.5C 238.217,245.733 236.217,245.733 234.5,243.5C 235.091,242.849 235.757,242.182 236.5,241.5C 235.757,240.818 235.091,240.151 234.5,239.5C 235.485,237.494 236.818,235.827 238.5,234.5 Z"/></g>
<g><path style="opacity:1" fill="#6bddf3" d="M 243.5,235.5 C 243.441,239.046 242.608,242.379 241,245.5C 238.509,246.22 236.009,246.887 233.5,247.5C 233.433,246.041 233.766,244.708 234.5,243.5C 236.217,245.733 238.217,245.733 240.5,243.5C 239.268,241.843 238.434,240.176 238,238.5C 239.011,239.337 240.178,239.67 241.5,239.5C 241.657,238.127 241.49,236.793 241,235.5C 239.539,236.883 238.706,236.549 238.5,234.5C 240.518,233.067 242.185,233.401 243.5,235.5 Z"/></g>
<g><path style="opacity:1" fill="#68dcf0" d="M 258.5,240.5 C 260.265,241.461 262.265,241.795 264.5,241.5C 264.5,241.833 264.5,242.167 264.5,242.5C 262.801,242.62 261.135,242.954 259.5,243.5C 258.328,243.081 257.328,242.415 256.5,241.5C 256.165,242.664 256.165,243.997 256.5,245.5C 260.445,246.491 264.445,246.824 268.5,246.5C 269.167,246.5 269.833,246.5 270.5,246.5C 264.595,247.878 258.595,247.712 252.5,246C 250.283,244.732 248.283,243.232 246.5,241.5C 250.025,235.235 254.025,234.901 258.5,240.5 Z"/></g>
<g><path style="opacity:1" fill="#68d8eb" d="M 270.5,234.5 C 271.338,234.842 271.672,235.508 271.5,236.5C 270.272,238.01 270.272,239.51 271.5,241C 271,241.5 270.5,242 270,242.5C 268.301,241.594 266.467,241.261 264.5,241.5C 262.265,241.795 260.265,241.461 258.5,240.5C 262.257,240.929 265.757,240.263 269,238.5C 269.791,237.255 270.291,235.922 270.5,234.5 Z"/></g>
<g><path style="opacity:1" fill="#6ad8ea" d="M 339.5,237.5 C 338.013,239.842 338.346,241.842 340.5,243.5C 339.833,244.833 338.833,245.833 337.5,246.5C 337.157,244.775 336.157,244.275 334.5,245C 333.023,246.812 331.69,248.645 330.5,250.5C 330.491,248.692 330.991,247.025 332,245.5C 334,242.334 336.5,239.668 339.5,237.5 Z"/></g>
<g><path style="opacity:1" fill="#5fe2fa" d="M 271.5,236.5 C 271.833,236.5 272.167,236.5 272.5,236.5C 274.319,238.472 275.319,240.805 275.5,243.5C 274.341,245.25 272.674,246.25 270.5,246.5C 269.833,246.5 269.167,246.5 268.5,246.5C 267.473,244.806 266.139,243.473 264.5,242.5C 264.5,242.167 264.5,241.833 264.5,241.5C 266.467,241.261 268.301,241.594 270,242.5C 270.5,242 271,241.5 271.5,241C 270.272,239.51 270.272,238.01 271.5,236.5 Z"/></g>
<g><path style="opacity:1" fill="#63e0f5" d="M 157.5,237.5 C 162.465,239.131 165.798,242.465 167.5,247.5C 166.442,248.6 165.608,249.934 165,251.5C 164,249.5 163,247.5 162,245.5C 161.329,244.748 160.496,244.414 159.5,244.5C 158.128,243.488 156.795,242.488 155.5,241.5C 155.229,239.62 155.896,238.287 157.5,237.5 Z"/></g>
<g><path style="opacity:1" fill="#59e6fc" d="M 264.5,242.5 C 266.139,243.473 267.473,244.806 268.5,246.5C 264.445,246.824 260.445,246.491 256.5,245.5C 256.165,243.997 256.165,242.664 256.5,241.5C 257.328,242.415 258.328,243.081 259.5,243.5C 261.135,242.954 262.801,242.62 264.5,242.5 Z"/></g>
<g><path style="opacity:1" fill="#5ae6f7" d="M 337.5,246.5 C 337.5,247.167 337.167,247.5 336.5,247.5C 334.029,250.216 332.529,253.549 332,257.5C 331.76,255.148 330.927,253.148 329.5,251.5C 329.5,250.833 329.833,250.5 330.5,250.5C 331.69,248.645 333.023,246.812 334.5,245C 336.157,244.275 337.157,244.775 337.5,246.5 Z"/></g>
<g><path style="opacity:0.004" fill="#000000" d="M 101.5,250.5 C 102.833,251.167 102.833,251.167 101.5,250.5 Z"/></g>
<g><path style="opacity:1" fill="#66d7eb" d="M 159.5,244.5 C 160.496,244.414 161.329,244.748 162,245.5C 163,247.5 164,249.5 165,251.5C 165.608,249.934 166.442,248.6 167.5,247.5C 169.955,251.734 171.289,256.4 171.5,261.5C 170.833,261.5 170.167,261.5 169.5,261.5C 169.44,260.957 169.107,260.624 168.5,260.5C 168.08,263.616 167.08,266.283 165.5,268.5C 166.828,259.455 164.828,251.455 159.5,244.5 Z"/></g>
<g><path style="opacity:0.004" fill="#000000" d="M 277.5,256.5 C 278.833,257.167 278.833,257.167 277.5,256.5 Z"/></g>
<g><path style="opacity:1" fill="#67d5e7" d="M 336.5,247.5 C 335.034,251.604 333.701,255.771 332.5,260C 333.754,263.646 333.754,267.146 332.5,270.5C 332.851,266.841 331.851,263.841 329.5,261.5C 329.715,259.821 329.048,258.821 327.5,258.5C 329.455,256.332 330.121,253.998 329.5,251.5C 330.927,253.148 331.76,255.148 332,257.5C 332.529,253.549 334.029,250.216 336.5,247.5 Z"/></g>
<g><path style="opacity:1" fill="#87cdd6" d="M 200.5,261.5 C 200.631,260.624 200.298,259.957 199.5,259.5C 198.735,260.612 197.735,261.279 196.5,261.5C 196.5,260.5 196.5,259.5 196.5,258.5C 200.182,258.335 203.848,258.501 207.5,259C 205.431,260.523 203.097,261.357 200.5,261.5 Z"/></g>
<g><path style="opacity:0.925" fill="#69c1cd" d="M 234.5,260.5 C 233.596,261.209 233.263,262.209 233.5,263.5C 232.5,263.5 231.5,263.5 230.5,263.5C 231.954,260.6 230.954,259.267 227.5,259.5C 227.5,258.5 227.5,257.5 227.5,256.5C 229.527,256.338 231.527,256.505 233.5,257C 234.337,258.011 234.67,259.178 234.5,260.5 Z"/></g>
<g><path style="opacity:1" fill="#61ddfc" d="M 169.5,261.5 C 169.5,264.833 169.5,268.167 169.5,271.5C 168.167,271.833 166.833,272.167 165.5,272.5C 165.5,271.167 165.5,269.833 165.5,268.5C 167.08,266.283 168.08,263.616 168.5,260.5C 169.107,260.624 169.44,260.957 169.5,261.5 Z"/></g>
<g><path style="opacity:0.596" fill="#65c6d9" d="M 223.5,261.5 C 221.955,262.23 221.122,263.563 221,265.5C 220.722,264.584 220.222,263.918 219.5,263.5C 219.33,262.178 219.663,261.011 220.5,260C 218.114,259.716 217.448,258.716 218.5,257C 222.492,255.823 224.158,257.323 223.5,261.5 Z"/></g>
<g><path style="opacity:0.271" fill="#77c5d4" d="M 260.5,261.5 C 257.421,260.628 254.421,260.628 251.5,261.5C 251.5,260.833 251.167,260.5 250.5,260.5C 252.185,257.451 254.685,256.784 258,258.5C 259.31,259.13 260.144,260.13 260.5,261.5 Z"/></g>
<g><path style="opacity:0.91" fill="#66beca" d="M 296.5,263.5 C 296.167,263.5 295.833,263.5 295.5,263.5C 294.833,263.5 294.167,263.5 293.5,263.5C 293.5,261.167 293.5,258.833 293.5,256.5C 294.5,256.5 295.5,256.5 296.5,256.5C 296.5,258.833 296.5,261.167 296.5,263.5 Z"/></g>
<g><path style="opacity:0.38" fill="#75c5d0" d="M 290.5,261.5 C 290.5,262.5 290.5,263.5 290.5,264.5C 288.766,263.438 287.099,263.438 285.5,264.5C 284.833,264.5 284.167,264.5 283.5,264.5C 283.574,262.589 284.574,261.422 286.5,261C 288.066,260.235 289.399,260.402 290.5,261.5 Z"/></g>
<g><path style="opacity:1" fill="#6dc0c9" d="M 279.5,263.5 C 278.833,263.833 278.167,264.167 277.5,264.5C 276.009,264.099 274.342,263.932 272.5,264C 271.167,263.333 271.167,262.667 272.5,262C 275.49,259.723 277.823,260.223 279.5,263.5 Z"/></g>
<g><path style="opacity:1" fill="#6dcbdd" d="M 250.5,260.5 C 251.167,260.5 251.5,260.833 251.5,261.5C 253.5,262.833 255.5,264.167 257.5,265.5C 255.883,266.038 254.216,266.371 252.5,266.5C 250.018,264.915 249.352,262.915 250.5,260.5 Z"/></g>
<g><path style="opacity:1" fill="#69bfd5" d="M 265.5,270.5 C 265.573,268.973 264.906,267.973 263.5,267.5C 263.5,266.5 263.5,265.5 263.5,264.5C 262.5,264.5 261.5,264.5 260.5,264.5C 260.5,263.5 260.5,262.5 260.5,261.5C 261.5,261.5 262.5,261.5 263.5,261.5C 263.281,260.325 263.614,259.325 264.5,258.5C 265.551,259.885 266.884,260.885 268.5,261.5C 269.386,262.325 269.719,263.325 269.5,264.5C 268.5,264.5 267.5,264.5 266.5,264.5C 266.795,266.735 266.461,268.735 265.5,270.5 Z"/></g>
<g><path style="opacity:0.914" fill="#63c3dc" d="M 200.5,261.5 C 201.784,263.614 203.784,264.614 206.5,264.5C 206.5,265.5 206.5,266.5 206.5,267.5C 204.459,267.854 202.626,267.854 201,267.5C 200.536,268.094 200.369,268.761 200.5,269.5C 199.624,269.631 198.957,269.298 198.5,268.5C 199.798,265.798 199.131,265.131 196.5,266.5C 196.5,264.833 196.5,263.167 196.5,261.5C 197.735,261.279 198.735,260.612 199.5,259.5C 200.298,259.957 200.631,260.624 200.5,261.5 Z"/></g>
<g><path style="opacity:0.467" fill="#7bc9da" d="M 209.5,273.5 C 209.5,272.833 209.5,272.167 209.5,271.5C 211.353,272.124 213.02,271.457 214.5,269.5C 213.495,266.748 213.828,264.081 215.5,261.5C 216.491,265.445 216.824,269.445 216.5,273.5C 213.959,274.103 211.626,274.103 209.5,273.5 Z"/></g>
<g><path style="opacity:0.608" fill="#69c0d5" d="M 223.5,261.5 C 224.668,264.504 224.668,267.504 223.5,270.5C 224.02,272.472 225.187,272.472 227,270.5C 227.684,271.784 227.517,272.951 226.5,274C 224.191,274.756 222.191,274.256 220.5,272.5C 219.516,269.572 219.183,266.572 219.5,263.5C 220.222,263.918 220.722,264.584 221,265.5C 221.122,263.563 221.955,262.23 223.5,261.5 Z"/></g>
<g><path style="opacity:1" fill="#77cbd5" d="M 260.5,270.5 C 259.5,270.5 258.5,270.5 257.5,270.5C 257.586,269.504 257.252,268.671 256.5,268C 254.942,267.79 253.609,267.29 252.5,266.5C 254.216,266.371 255.883,266.038 257.5,265.5C 258.117,265.389 258.617,265.056 259,264.5C 259.813,266.436 260.313,268.436 260.5,270.5 Z"/></g>
<g><path style="opacity:0.796" fill="#5bc1d3" d="M 290.5,261.5 C 291.778,261.782 292.778,262.449 293.5,263.5C 294.167,263.5 294.833,263.5 295.5,263.5C 295.81,265.144 296.81,266.144 298.5,266.5C 298.5,266.833 298.5,267.167 298.5,267.5C 296.973,267.427 295.973,268.094 295.5,269.5C 294.143,268.41 293.143,267.076 292.5,265.5C 291.508,265.672 290.842,265.338 290.5,264.5C 290.5,263.5 290.5,262.5 290.5,261.5 Z"/></g>
<g><path style="opacity:1" fill="#6dc3d7" d="M 298.5,266.5 C 296.81,266.144 295.81,265.144 295.5,263.5C 295.833,263.5 296.167,263.5 296.5,263.5C 296.435,263.938 296.601,264.272 297,264.5C 297.833,263.667 298.667,262.833 299.5,262C 298.289,261.107 298.289,260.274 299.5,259.5C 301.23,260.026 302.564,261.026 303.5,262.5C 301.814,263.857 300.148,265.19 298.5,266.5 Z"/></g>
<g><path style="opacity:0.878" fill="#63c5d5" d="M 327.5,258.5 C 329.048,258.821 329.715,259.821 329.5,261.5C 329.5,264.5 329.5,267.5 329.5,270.5C 329.5,272.5 329.5,274.5 329.5,276.5C 328.71,275.391 328.21,274.058 328,272.5C 327.501,267.845 327.334,263.179 327.5,258.5 Z"/></g>
<g><path style="opacity:1" fill="#5ee0f8" d="M 329.5,261.5 C 331.851,263.841 332.851,266.841 332.5,270.5C 332.5,270.833 332.5,271.167 332.5,271.5C 332.167,271.5 331.833,271.5 331.5,271.5C 331.158,270.662 330.492,270.328 329.5,270.5C 329.5,267.5 329.5,264.5 329.5,261.5 Z"/></g>
<g><path style="opacity:0.047" fill="#6ac4dd" d="M 169.5,261.5 C 170.167,261.5 170.833,261.5 171.5,261.5C 171.608,266.87 171.275,272.203 170.5,277.5C 169.172,275.556 168.839,273.556 169.5,271.5C 169.5,268.167 169.5,264.833 169.5,261.5 Z"/></g>
<g><path style="opacity:0.031" fill="#7399a8" d="M 225.5,265.5 C 227.088,266.635 227.421,267.969 226.5,269.5C 225.571,268.311 225.238,266.978 225.5,265.5 Z"/></g>
<g><path style="opacity:0.851" fill="#68ccdc" d="M 283.5,264.5 C 284.167,264.5 284.833,264.5 285.5,264.5C 285.674,266.861 286.007,269.194 286.5,271.5C 287.5,271.5 288.5,271.5 289.5,271.5C 289.328,272.492 289.662,273.158 290.5,273.5C 288.03,274.878 285.696,274.545 283.5,272.5C 283.158,271.662 282.492,271.328 281.5,271.5C 281.5,271.167 281.5,270.833 281.5,270.5C 281.5,268.833 281.5,267.167 281.5,265.5C 282.167,265.167 282.833,264.833 283.5,264.5 Z"/></g>
<g><path style="opacity:0.914" fill="#68bccc" d="M 234.5,260.5 C 234.334,264.514 234.501,268.514 235,272.5C 235.414,272.043 235.914,271.709 236.5,271.5C 237.711,272.274 237.711,273.107 236.5,274C 235.101,274.595 233.768,274.428 232.5,273.5C 231.402,270.247 230.736,266.914 230.5,263.5C 231.5,263.5 232.5,263.5 233.5,263.5C 233.263,262.209 233.596,261.209 234.5,260.5 Z"/></g>
<g><path style="opacity:0.02" fill="#6bcbcd" d="M 200.5,269.5 C 200.5,270.833 200.5,272.167 200.5,273.5C 199.325,273.719 198.325,273.386 197.5,272.5C 196.652,270.591 196.318,268.591 196.5,266.5C 199.131,265.131 199.798,265.798 198.5,268.5C 198.957,269.298 199.624,269.631 200.5,269.5 Z"/></g>
<g><path style="opacity:0.651" fill="#73c5d5" d="M 209.5,271.5 C 209.5,272.167 209.5,272.833 209.5,273.5C 208.206,271.952 207.539,269.952 207.5,267.5C 207.833,265.5 208.167,263.5 208.5,261.5C 209.308,261.808 209.975,262.308 210.5,263C 210.596,265.79 210.262,268.623 209.5,271.5 Z"/></g>
<g><path style="opacity:0.627" fill="#6fcedc" d="M 279.5,263.5 C 281.138,265.955 280.805,267.955 278.5,269.5C 276.58,268.06 274.913,268.393 273.5,270.5C 275.037,272.93 276.704,272.93 278.5,270.5C 278.557,271.609 278.89,272.609 279.5,273.5C 277.347,274.573 275.347,274.573 273.5,273.5C 273.158,272.662 272.492,272.328 271.5,272.5C 270.921,267.76 272.921,265.094 277.5,264.5C 278.167,264.167 278.833,263.833 279.5,263.5 Z"/></g>
<g><path style="opacity:0.816" fill="#69bcc6" d="M 292.5,265.5 C 293.143,267.076 294.143,268.41 295.5,269.5C 295.5,270.5 295.5,271.5 295.5,272.5C 294.752,274.735 293.919,274.402 293,271.5C 292.292,272.381 291.458,273.047 290.5,273.5C 289.662,273.158 289.328,272.492 289.5,271.5C 290.209,270.596 291.209,270.263 292.5,270.5C 292.5,268.833 292.5,267.167 292.5,265.5 Z"/></g>
<g><path style="opacity:0.663" fill="#77c7d9" d="M 257.5,270.5 C 258.5,270.5 259.5,270.5 260.5,270.5C 257.717,274.447 254.05,275.447 249.5,273.5C 249.281,272.325 249.614,271.325 250.5,270.5C 252.865,271.822 255.198,271.822 257.5,270.5 Z"/></g>
<g><path style="opacity:0.067" fill="#6fc6d1" d="M 263.5,267.5 C 264.906,267.973 265.573,268.973 265.5,270.5C 266.884,271.801 268.384,271.801 270,270.5C 270.278,271.416 270.778,272.082 271.5,272.5C 272.492,272.328 273.158,272.662 273.5,273.5C 270.474,274.577 267.474,274.577 264.5,273.5C 263.534,271.604 263.201,269.604 263.5,267.5 Z"/></g>
<g><path style="opacity:0.671" fill="#72d2d7" d="M 279.5,263.5 C 280.5,263.833 281.167,264.5 281.5,265.5C 281.5,267.167 281.5,268.833 281.5,270.5C 280.167,270.833 280.167,271.167 281.5,271.5C 282.492,271.328 283.158,271.662 283.5,272.5C 282.279,273.028 281.113,273.695 280,274.5C 279.601,274.272 279.435,273.938 279.5,273.5C 278.89,272.609 278.557,271.609 278.5,270.5C 278.5,270.167 278.5,269.833 278.5,269.5C 280.805,267.955 281.138,265.955 279.5,263.5 Z"/></g>
<g><path style="opacity:1" fill="#7dd9e1" d="M 298.5,267.5 C 300.955,268.786 302.955,270.62 304.5,273C 304,273.5 303.5,274 303,274.5C 300.708,273.21 298.708,271.543 297,269.5C 296.768,270.737 296.268,271.737 295.5,272.5C 295.5,271.5 295.5,270.5 295.5,269.5C 295.973,268.094 296.973,267.427 298.5,267.5 Z"/></g>
<g><path style="opacity:0.004" fill="#000000" d="M 398.5,274.5 C 399.833,275.167 399.833,275.167 398.5,274.5 Z"/></g>
<g><path style="opacity:1" fill="#67d6ee" d="M 169.5,271.5 C 168.839,273.556 169.172,275.556 170.5,277.5C 170.5,282.5 170.5,287.5 170.5,292.5C 169.016,288.709 168.016,284.709 167.5,280.5C 167.802,277.941 167.468,275.607 166.5,273.5C 165.833,273.5 165.5,273.167 165.5,272.5C 166.833,272.167 168.167,271.833 169.5,271.5 Z"/></g>
<g><path style="opacity:1" fill="#6dd0e5" d="M 166.5,273.5 C 167.468,275.607 167.802,277.941 167.5,280.5C 166.837,282.473 166.504,284.639 166.5,287C 166.431,291.053 167.098,294.886 168.5,298.5C 168.167,298.5 167.833,298.5 167.5,298.5C 165.994,293.225 164.994,287.725 164.5,282C 165.994,279.361 166.661,276.528 166.5,273.5 Z"/></g>
<g><path style="opacity:1" fill="#66d9f4" d="M 329.5,270.5 C 330.492,270.328 331.158,270.662 331.5,271.5C 331.502,277.523 331.835,283.523 332.5,289.5C 331.167,289.833 329.833,290.167 328.5,290.5C 329.383,285.897 329.717,281.23 329.5,276.5C 329.5,274.5 329.5,272.5 329.5,270.5 Z"/></g>
<g><path style="opacity:0.004" fill="#000000" d="M 393.5,279.5 C 394.833,280.167 394.833,280.167 393.5,279.5 Z"/></g>
<g><path style="opacity:1" fill="#60e1f8" d="M 167.5,280.5 C 168.016,284.709 169.016,288.709 170.5,292.5C 171.123,294.711 172.123,296.711 173.5,298.5C 171.833,298.5 170.167,298.5 168.5,298.5C 167.098,294.886 166.431,291.053 166.5,287C 166.504,284.639 166.837,282.473 167.5,280.5 Z"/></g>
<g><path style="opacity:0.004" fill="#000000" d="M 485.5,281.5 C 486.833,282.167 486.833,282.167 485.5,281.5 Z"/></g>
<g><path style="opacity:0.004" fill="#000000" d="M 228.5,291.5 C 229.833,292.167 229.833,292.167 228.5,291.5 Z"/></g>
<g><path style="opacity:0.263" fill="#7ad6e5" d="M 331.5,271.5 C 331.833,271.5 332.167,271.5 332.5,271.5C 332.311,276.161 332.978,280.661 334.5,285C 333.167,286.667 333.167,288.333 334.5,290C 333.901,291.622 333.234,293.122 332.5,294.5C 332.5,294.167 332.5,293.833 332.5,293.5C 332.5,292.167 332.5,290.833 332.5,289.5C 331.835,283.523 331.502,277.523 331.5,271.5 Z"/></g>
<g><path style="opacity:0.004" fill="#000000" d="M 435.5,293.5 C 436.833,294.167 436.833,294.167 435.5,293.5 Z"/></g>
<g><path style="opacity:0.004" fill="#000000" d="M 254.5,295.5 C 255.833,296.167 255.833,296.167 254.5,295.5 Z"/></g>
<g><path style="opacity:1" fill="#5de4f8" d="M 332.5,289.5 C 332.5,290.833 332.5,292.167 332.5,293.5C 331.055,295.69 329.722,298.023 328.5,300.5C 327.943,298.282 327.943,295.949 328.5,293.5C 329.833,292.5 329.833,291.5 328.5,290.5C 329.833,290.167 331.167,289.833 332.5,289.5 Z"/></g>
<g><path style="opacity:1" fill="#5fe1f0" d="M 167.5,298.5 C 167.833,298.5 168.167,298.5 168.5,298.5C 170.167,298.5 171.833,298.5 173.5,298.5C 175.306,299.024 176.972,299.691 178.5,300.5C 175.545,301.159 172.545,301.492 169.5,301.5C 168.094,301.027 167.427,300.027 167.5,298.5 Z"/></g>
<g><path style="opacity:0.004" fill="#000000" d="M 206.5,298.5 C 207.833,299.167 207.833,299.167 206.5,298.5 Z"/></g>
<g><path style="opacity:0.004" fill="#000000" d="M 120.5,300.5 C 121.833,301.167 121.833,301.167 120.5,300.5 Z"/></g>
<g><path style="opacity:1" fill="#6cd6e9" d="M 328.5,293.5 C 327.943,295.949 327.943,298.282 328.5,300.5C 329.722,298.023 331.055,295.69 332.5,293.5C 332.5,293.833 332.5,294.167 332.5,294.5C 332.488,299.505 330.155,302.838 325.5,304.5C 326.905,302.547 326.239,301.547 323.5,301.5C 320.201,302.21 316.867,302.543 313.5,302.5C 313.5,302.167 313.5,301.833 313.5,301.5C 320.5,302.172 325.5,299.506 328.5,293.5 Z"/></g>
<g><path style="opacity:1" fill="#65dff7" d="M 178.5,300.5 C 179.167,300.5 179.5,300.833 179.5,301.5C 179.5,301.833 179.5,302.167 179.5,302.5C 179.833,303.167 180.167,303.833 180.5,304.5C 178.5,304.5 176.5,304.5 174.5,304.5C 172.067,304.727 170.401,303.727 169.5,301.5C 172.545,301.492 175.545,301.159 178.5,300.5 Z"/></g>
<g><path style="opacity:1" fill="#6fd8e8" d="M 174.5,304.5 C 176.5,304.5 178.5,304.5 180.5,304.5C 184.226,304.823 187.893,304.489 191.5,303.5C 187.555,302.509 183.555,302.176 179.5,302.5C 179.5,302.167 179.5,301.833 179.5,301.5C 185.167,300.925 190.833,300.758 196.5,301C 195.743,302.512 194.743,303.846 193.5,305C 186.986,305.82 180.653,305.653 174.5,304.5 Z"/></g>
<g><path style="opacity:1" fill="#5ae6fc" d="M 179.5,302.5 C 183.555,302.176 187.555,302.509 191.5,303.5C 187.893,304.489 184.226,304.823 180.5,304.5C 180.167,303.833 179.833,303.167 179.5,302.5 Z"/></g>
<g><path style="opacity:1" fill="#6bdbee" d="M 313.5,301.5 C 313.5,301.833 313.5,302.167 313.5,302.5C 313.782,303.778 314.449,304.778 315.5,305.5C 311.894,305.789 308.394,305.456 305,304.5C 304.316,303.216 304.483,302.049 305.5,301C 308.221,300.398 310.887,300.565 313.5,301.5 Z"/></g>
<g><path style="opacity:1" fill="#62e3f6" d="M 325.5,304.5 C 322.272,305.414 318.939,305.747 315.5,305.5C 314.449,304.778 313.782,303.778 313.5,302.5C 316.867,302.543 320.201,302.21 323.5,301.5C 326.239,301.547 326.905,302.547 325.5,304.5 Z"/></g>
<g><path style="opacity:0.004" fill="#000000" d="M 165.5,303.5 C 166.833,304.167 166.833,304.167 165.5,303.5 Z"/></g>
<g><path style="opacity:0.004" fill="#000000" d="M 86.5,307.5 C 87.8333,308.167 87.8333,308.167 86.5,307.5 Z"/></g>
<g><path style="opacity:0.004" fill="#000000" d="M 140.5,309.5 C 141.833,310.167 141.833,310.167 140.5,309.5 Z"/></g>
<g><path style="opacity:0.004" fill="#000000" d="M 482.5,309.5 C 483.833,310.167 483.833,310.167 482.5,309.5 Z"/></g>
<g><path style="opacity:0.004" fill="#000000" d="M 305.5,317.5 C 306.833,318.167 306.833,318.167 305.5,317.5 Z"/></g>
<g><path style="opacity:0.004" fill="#000000" d="M 290.5,326.5 C 291.833,327.167 291.833,327.167 290.5,326.5 Z"/></g>
<g><path style="opacity:0.004" fill="#000000" d="M 279.5,327.5 C 280.833,328.167 280.833,328.167 279.5,327.5 Z"/></g>
<g><path style="opacity:0.004" fill="#000000" d="M 341.5,331.5 C 342.833,332.167 342.833,332.167 341.5,331.5 Z"/></g>
<g><path style="opacity:0.004" fill="#000000" d="M 239.5,335.5 C 240.833,336.167 240.833,336.167 239.5,335.5 Z"/></g>
<g><path style="opacity:0.004" fill="#000000" d="M 318.5,347.5 C 319.833,348.167 319.833,348.167 318.5,347.5 Z"/></g>
<g><path style="opacity:0.004" fill="#000000" d="M 265.5,355.5 C 266.833,356.167 266.833,356.167 265.5,355.5 Z"/></g>
<g><path style="opacity:0.004" fill="#000000" d="M 287.5,376.5 C 288.833,377.167 288.833,377.167 287.5,376.5 Z"/></g>
<g><path style="opacity:0.004" fill="#000000" d="M 348.5,376.5 C 349.833,377.167 349.833,377.167 348.5,376.5 Z"/></g>
<g><path style="opacity:0.004" fill="#000000" d="M 155.5,388.5 C 156.833,389.167 156.833,389.167 155.5,388.5 Z"/></g>
<g><path style="opacity:0.004" fill="#000000" d="M 403.5,389.5 C 404.833,390.167 404.833,390.167 403.5,389.5 Z"/></g>
<g><path style="opacity:0.004" fill="#000000" d="M 327.5,390.5 C 328.833,391.167 328.833,391.167 327.5,390.5 Z"/></g>
<g><path style="opacity:0.004" fill="#000000" d="M 88.5,398.5 C 89.8333,399.167 89.8333,399.167 88.5,398.5 Z"/></g>
<g><path style="opacity:0.004" fill="#000000" d="M 173.5,404.5 C 174.833,405.167 174.833,405.167 173.5,404.5 Z"/></g>
<g><path style="opacity:0.004" fill="#000000" d="M 476.5,409.5 C 477.833,410.167 477.833,410.167 476.5,409.5 Z"/></g>
<g><path style="opacity:0.004" fill="#000000" d="M 27.5,414.5 C 28.8333,415.167 28.8333,415.167 27.5,414.5 Z"/></g>
<g><path style="opacity:0.004" fill="#000000" d="M 215.5,430.5 C 216.833,431.167 216.833,431.167 215.5,430.5 Z"/></g>
<g><path style="opacity:0.004" fill="#000000" d="M 62.5,448.5 C 63.8333,449.167 63.8333,449.167 62.5,448.5 Z"/></g>
<g><path style="opacity:0.004" fill="#000000" d="M 237.5,456.5 C 238.833,457.167 238.833,457.167 237.5,456.5 Z"/></g>
<g><path style="opacity:0.004" fill="#000000" d="M 263.5,456.5 C 264.833,457.167 264.833,457.167 263.5,456.5 Z"/></g>
<g><path style="opacity:0.004" fill="#000000" d="M 436.5,456.5 C 437.833,457.167 437.833,457.167 436.5,456.5 Z"/></g>
<g><path style="opacity:0.004" fill="#000000" d="M 419.5,463.5 C 420.833,464.167 420.833,464.167 419.5,463.5 Z"/></g>
<g><path style="opacity:0.004" fill="#000000" d="M 306.5,487.5 C 307.833,488.167 307.833,488.167 306.5,487.5 Z"/></g>
<g><path style="opacity:0.004" fill="#000000" d="M 350.5,489.5 C 351.833,490.167 351.833,490.167 350.5,489.5 Z"/></g>
<g><path style="opacity:0.004" fill="#000000" d="M 193.5,491.5 C 194.833,492.167 194.833,492.167 193.5,491.5 Z"/></g>
</svg>
